<svg xmlns="http://www.w3.org/2000/svg" width="1400" height="820" viewBox="0 0 1400 820" role="img" aria-label="CITADEL COMMAND DECK">
  <defs>
    <linearGradient id="bg" x1="0" y1="0" x2="1" y2="1">
      <stop offset="0" stop-color="#02060a"/>
      <stop offset="0.45" stop-color="#0b1b26"/>
      <stop offset="1" stop-color="#030912"/>
    </linearGradient>
    <radialGradient id="glow" cx="50%" cy="38%" r="55%">
      <stop offset="0" stop-color="#22d3ee" stop-opacity="0.45"/>
      <stop offset="0.42" stop-color="#22d3ee" stop-opacity="0.16"/>
      <stop offset="1" stop-color="#22d3ee" stop-opacity="0"/>
    </radialGradient>
    <filter id="soft" x="-30%" y="-30%" width="160%" height="160%"><feGaussianBlur stdDeviation="8"/></filter>
    <pattern id="grid" width="42" height="42" patternUnits="userSpaceOnUse">
      <path d="M42 0H0V42" fill="none" stroke="#8bdcf0" stroke-opacity="0.08" stroke-width="1"/>
    </pattern>
  </defs>
  <rect width="1400" height="820" fill="url(#bg)"/>
  <rect width="1400" height="820" fill="url(#grid)"/>
  <rect width="1400" height="820" fill="url(#glow)"/>
  <g opacity="0.92">
      <path d="M660 90 L775 90 L836 760 L596 760 Z" fill="#0c2531" stroke="#67e8f9" stroke-opacity="0.38" stroke-width="3"/>
      <path d="M704 118 L736 118 L760 742 L676 742 Z" fill="#0f3444" stroke="#7dd3fc" stroke-opacity="0.28"/>
      <circle cx="706" cy="270" r="86" fill="#22d3ee" opacity="0.08" filter="url(#soft)"/>
      <g stroke="#67e8f9" stroke-opacity="0.28" fill="none"><path d="M260 650 C420 560 500 480 592 375"/><path d="M1110 648 C960 560 886 470 812 350"/><path d="M338 230 C486 238 564 292 650 352"/><path d="M1060 230 C910 238 832 292 750 352"/></g>
      <g fill="#67e8f9" opacity="0.16"><rect x="202" y="560" width="210" height="74" rx="14"/><rect x="990" y="558" width="210" height="76" rx="14"/><rect x="250" y="206" width="170" height="52" rx="12"/><rect x="982" y="206" width="170" height="52" rx="12"/></g>
    </g>
  <g opacity="0.42" stroke="#22d3ee" stroke-width="2" fill="none">
    <path d="M110 96H420M980 96h310M110 724h300M1000 724h290"/>
    <path d="M110 96v88M1290 96v88M110 724v-88M1290 724v-88"/>
  </g>
  <g font-family="ui-monospace, SFMono-Regular, Menlo, Consolas, monospace" fill="#d8f6ff">
    <text x="96" y="72" font-size="24" font-weight="700" letter-spacing="4">COAN VISUAL ARCHIVE</text>
    <text x="96" y="760" font-size="18" fill="#22d3ee" letter-spacing="3">CITADEL COMMAND DECK</text>
    <text x="1030" y="760" font-size="16" fill="#8aa4b4" letter-spacing="2">GENERATED VECTOR ASSET</text>
  </g>
</svg>