<svg xmlns="http://www.w3.org/2000/svg" width="1400" height="820" viewBox="0 0 1400 820" role="img" aria-label="CITY 17 SECTOR GRID">
  <defs>
    <linearGradient id="bg" x1="0" y1="0" x2="1" y2="1">
      <stop offset="0" stop-color="#02060a"/>
      <stop offset="0.45" stop-color="#0a1620"/>
      <stop offset="1" stop-color="#030912"/>
    </linearGradient>
    <radialGradient id="glow" cx="50%" cy="38%" r="55%">
      <stop offset="0" stop-color="#38bdf8" stop-opacity="0.45"/>
      <stop offset="0.42" stop-color="#38bdf8" stop-opacity="0.16"/>
      <stop offset="1" stop-color="#38bdf8" stop-opacity="0"/>
    </radialGradient>
    <filter id="soft" x="-30%" y="-30%" width="160%" height="160%"><feGaussianBlur stdDeviation="8"/></filter>
    <pattern id="grid" width="42" height="42" patternUnits="userSpaceOnUse">
      <path d="M42 0H0V42" fill="none" stroke="#8bdcf0" stroke-opacity="0.08" stroke-width="1"/>
    </pattern>
  </defs>
  <rect width="1400" height="820" fill="url(#bg)"/>
  <rect width="1400" height="820" fill="url(#grid)"/>
  <rect width="1400" height="820" fill="url(#glow)"/>
  <g opacity="0.92">
      <g transform="translate(210 140)" fill="#0f2532" stroke="#67e8f9" stroke-opacity="0.26" stroke-width="2">
        <rect x="0" y="0" width="250" height="160" rx="18"/><rect x="290" y="30" width="220" height="210" rx="18"/><rect x="550" y="0" width="240" height="170" rx="18"/><rect x="815" y="50" width="210" height="220" rx="18"/>
        <rect x="55" y="230" width="280" height="180" rx="18"/><rect x="375" y="290" width="250" height="170" rx="18"/><rect x="675" y="250" width="300" height="210" rx="18"/>
      </g>
      <g stroke="#38bdf8" stroke-opacity="0.35" fill="none" stroke-width="3"><path d="M460 220h40v55h170"/><path d="M720 212h120v70h185"/><path d="M375 454h210v-40h0"/><path d="M835 430h-160v50h-80"/></g>
      <circle cx="700" cy="410" r="68" fill="#38bdf8" opacity="0.09" filter="url(#soft)"/>
      <circle cx="700" cy="410" r="22" fill="#7dd3fc" opacity="0.42"/>
    </g>
  <g opacity="0.42" stroke="#38bdf8" stroke-width="2" fill="none">
    <path d="M110 96H420M980 96h310M110 724h300M1000 724h290"/>
    <path d="M110 96v88M1290 96v88M110 724v-88M1290 724v-88"/>
  </g>
  <g font-family="ui-monospace, SFMono-Regular, Menlo, Consolas, monospace" fill="#d8f6ff">
    <text x="96" y="72" font-size="24" font-weight="700" letter-spacing="4">COAN VISUAL ARCHIVE</text>
    <text x="96" y="760" font-size="18" fill="#38bdf8" letter-spacing="3">CITY 17 SECTOR GRID</text>
    <text x="1030" y="760" font-size="16" fill="#8aa4b4" letter-spacing="2">GENERATED VECTOR ASSET</text>
  </g>
</svg>