<svg xmlns="http://www.w3.org/2000/svg" width="1400" height="820" viewBox="0 0 1400 820" role="img" aria-label="NOVA PROSPEKT PANOPTICON DOSSIER">
  <defs>
    <linearGradient id="bg" x1="0" y1="0" x2="1" y2="1">
      <stop offset="0" stop-color="#02060a"/>
      <stop offset="0.45" stop-color="#111b2e"/>
      <stop offset="1" stop-color="#030912"/>
    </linearGradient>
    <radialGradient id="glow" cx="50%" cy="38%" r="55%">
      <stop offset="0" stop-color="#60a5fa" stop-opacity="0.45"/>
      <stop offset="0.42" stop-color="#60a5fa" stop-opacity="0.16"/>
      <stop offset="1" stop-color="#60a5fa" stop-opacity="0"/>
    </radialGradient>
    <filter id="soft" x="-30%" y="-30%" width="160%" height="160%"><feGaussianBlur stdDeviation="8"/></filter>
    <pattern id="grid" width="42" height="42" patternUnits="userSpaceOnUse">
      <path d="M42 0H0V42" fill="none" stroke="#8bdcf0" stroke-opacity="0.08" stroke-width="1"/>
    </pattern>
  </defs>
  <rect width="1400" height="820" fill="url(#bg)"/>
  <rect width="1400" height="820" fill="url(#grid)"/>
  <rect width="1400" height="820" fill="url(#glow)"/>
  <g opacity="0.92">
      <ellipse cx="700" cy="520" rx="430" ry="130" fill="#102033" stroke="#93c5fd" stroke-opacity="0.25" stroke-width="4"/>
      <path d="M430 540 L492 210 H908 L970 540" fill="#0b1627" stroke="#93c5fd" stroke-opacity="0.32" stroke-width="3"/>
      <path d="M540 524 V258 H860 V524" fill="#16243a" stroke="#60a5fa" stroke-opacity="0.25"/>
      <g fill="#60a5fa" opacity="0.14"><rect x="570" y="282" width="62" height="98" rx="6"/><rect x="668" y="282" width="62" height="98" rx="6"/><rect x="766" y="282" width="62" height="98" rx="6"/><rect x="570" y="404" width="258" height="46" rx="8"/></g>
      <g stroke="#93c5fd" stroke-opacity="0.20"><path d="M334 614h732"/><path d="M390 650h620"/><path d="M460 686h480"/></g>
    </g>
  <g opacity="0.42" stroke="#60a5fa" stroke-width="2" fill="none">
    <path d="M110 96H420M980 96h310M110 724h300M1000 724h290"/>
    <path d="M110 96v88M1290 96v88M110 724v-88M1290 724v-88"/>
  </g>
  <g font-family="ui-monospace, SFMono-Regular, Menlo, Consolas, monospace" fill="#d8f6ff">
    <text x="96" y="72" font-size="24" font-weight="700" letter-spacing="4">COAN VISUAL ARCHIVE</text>
    <text x="96" y="760" font-size="18" fill="#60a5fa" letter-spacing="3">NOVA PROSPEKT PANOPTICON DOSSIER</text>
    <text x="1030" y="760" font-size="16" fill="#8aa4b4" letter-spacing="2">GENERATED VECTOR ASSET</text>
  </g>
</svg>