<svg xmlns="http://www.w3.org/2000/svg" width="1400" height="820" viewBox="0 0 1400 820" role="img" aria-label="OVERWATCH UNIT DOSSIER">
  <defs>
    <linearGradient id="bg" x1="0" y1="0" x2="1" y2="1">
      <stop offset="0" stop-color="#02060a"/>
      <stop offset="0.45" stop-color="#0b1724"/>
      <stop offset="1" stop-color="#030912"/>
    </linearGradient>
    <radialGradient id="glow" cx="50%" cy="38%" r="55%">
      <stop offset="0" stop-color="#22d3ee" stop-opacity="0.45"/>
      <stop offset="0.42" stop-color="#22d3ee" stop-opacity="0.16"/>
      <stop offset="1" stop-color="#22d3ee" stop-opacity="0"/>
    </radialGradient>
    <filter id="soft" x="-30%" y="-30%" width="160%" height="160%"><feGaussianBlur stdDeviation="8"/></filter>
    <pattern id="grid" width="42" height="42" patternUnits="userSpaceOnUse">
      <path d="M42 0H0V42" fill="none" stroke="#8bdcf0" stroke-opacity="0.08" stroke-width="1"/>
    </pattern>
  </defs>
  <rect width="1400" height="820" fill="url(#bg)"/>
  <rect width="1400" height="820" fill="url(#grid)"/>
  <rect width="1400" height="820" fill="url(#glow)"/>
  <g opacity="0.92">
      <path d="M700 130 L925 250 L900 570 L700 700 L500 570 L475 250 Z" fill="#0d2230" stroke="#67e8f9" stroke-opacity="0.36" stroke-width="4"/>
      <path d="M700 188 L842 266 L828 525 L700 608 L572 525 L558 266 Z" fill="#132f3f" stroke="#67e8f9" stroke-opacity="0.18"/>
      <path d="M625 326h150v54H625zM602 420h196v42H602zM644 500h112v34H644z" fill="#67e8f9" opacity="0.18"/>
      <g stroke="#67e8f9" stroke-opacity="0.24" fill="none"><path d="M360 260h170M870 260h170M300 420h250M850 420h250M360 590h170M870 590h170"/></g>
      <g fill="#22d3ee" opacity="0.13"><rect x="212" y="216" width="180" height="88" rx="14"/><rect x="1010" y="216" width="180" height="88" rx="14"/><rect x="214" y="540" width="180" height="88" rx="14"/><rect x="1008" y="540" width="180" height="88" rx="14"/></g>
    </g>
  <g opacity="0.42" stroke="#22d3ee" stroke-width="2" fill="none">
    <path d="M110 96H420M980 96h310M110 724h300M1000 724h290"/>
    <path d="M110 96v88M1290 96v88M110 724v-88M1290 724v-88"/>
  </g>
  <g font-family="ui-monospace, SFMono-Regular, Menlo, Consolas, monospace" fill="#d8f6ff">
    <text x="96" y="72" font-size="24" font-weight="700" letter-spacing="4">COAN VISUAL ARCHIVE</text>
    <text x="96" y="760" font-size="18" fill="#22d3ee" letter-spacing="3">OVERWATCH UNIT DOSSIER</text>
    <text x="1030" y="760" font-size="16" fill="#8aa4b4" letter-spacing="2">GENERATED VECTOR ASSET</text>
  </g>
</svg>