<svg xmlns="http://www.w3.org/2000/svg" width="1400" height="820" viewBox="0 0 1400 820" role="img" aria-label="XEN QUARANTINE BIOME">
  <defs>
    <linearGradient id="bg" x1="0" y1="0" x2="1" y2="1">
      <stop offset="0" stop-color="#02060a"/>
      <stop offset="0.45" stop-color="#16142b"/>
      <stop offset="1" stop-color="#030912"/>
    </linearGradient>
    <radialGradient id="glow" cx="50%" cy="38%" r="55%">
      <stop offset="0" stop-color="#a78bfa" stop-opacity="0.45"/>
      <stop offset="0.42" stop-color="#a78bfa" stop-opacity="0.16"/>
      <stop offset="1" stop-color="#a78bfa" stop-opacity="0"/>
    </radialGradient>
    <filter id="soft" x="-30%" y="-30%" width="160%" height="160%"><feGaussianBlur stdDeviation="8"/></filter>
    <pattern id="grid" width="42" height="42" patternUnits="userSpaceOnUse">
      <path d="M42 0H0V42" fill="none" stroke="#8bdcf0" stroke-opacity="0.08" stroke-width="1"/>
    </pattern>
  </defs>
  <rect width="1400" height="820" fill="url(#bg)"/>
  <rect width="1400" height="820" fill="url(#grid)"/>
  <rect width="1400" height="820" fill="url(#glow)"/>
  <g opacity="0.92">
      <g fill="none" stroke="#a78bfa" stroke-opacity="0.34" stroke-width="4"><path d="M240 590 C430 460 520 650 690 430 S1000 360 1140 220"/><path d="M260 638 C510 510 620 710 820 480 S1050 438 1220 310"/></g>
      <g fill="#a78bfa" opacity="0.15"><circle cx="456" cy="510" r="88"/><circle cx="760" cy="444" r="132"/><circle cx="1035" cy="342" r="96"/><circle cx="620" cy="610" r="44"/></g>
      <g stroke="#c4b5fd" stroke-opacity="0.38" fill="none"><path d="M740 250c30 80-20 130-20 190s74 105 30 178"/><path d="M810 310c-84 52-130 70-170 142"/><path d="M650 332c62 72 88 106 92 196"/></g>
      <g fill="#ddd6fe" opacity="0.22"><circle cx="760" cy="444" r="11"/><circle cx="456" cy="510" r="9"/><circle cx="1035" cy="342" r="10"/><circle cx="620" cy="610" r="7"/></g>
    </g>
  <g opacity="0.42" stroke="#a78bfa" stroke-width="2" fill="none">
    <path d="M110 96H420M980 96h310M110 724h300M1000 724h290"/>
    <path d="M110 96v88M1290 96v88M110 724v-88M1290 724v-88"/>
  </g>
  <g font-family="ui-monospace, SFMono-Regular, Menlo, Consolas, monospace" fill="#d8f6ff">
    <text x="96" y="72" font-size="24" font-weight="700" letter-spacing="4">COAN VISUAL ARCHIVE</text>
    <text x="96" y="760" font-size="18" fill="#a78bfa" letter-spacing="3">XEN QUARANTINE BIOME</text>
    <text x="1030" y="760" font-size="16" fill="#8aa4b4" letter-spacing="2">GENERATED VECTOR ASSET</text>
  </g>
</svg>